inDegrees=no
num_controls=7
num_derivatives=13
num_iterations=80
num_multipliers=7
num_parameters=0
num_slacks=7
num_states=26
objective=0.429040
objective_accelerations=0.054668
objective_balance=0.002698
objective_effort=0.014535
objective_height=0.351155
objective_ligament=0.005983
solver_duration=1509.151725
status=Solve_Succeeded
success=true
DataType=double
version=3
OpenSimVersion=4.5
endheader
time	/jointset/ground_pelvis/pelvis_tilt/value	/jointset/ground_pelvis/pelvis_tx/value	/jointset/ground_pelvis/pelvis_ty/value	/jointset/hip_l/hip_flexion_l/value	/jointset/hip_l/hip_adduction_l/value	/jointset/hip_l/hip_rotation_l/value	/jointset/back/lumbar_extension/value	/jointset/patellofemoral_l/patellar_flexion_l/value	/jointset/knee_l/knee_flexion_l/value	/jointset/knee_l/knee_adduction_l/value	/jointset/knee_l/knee_rotation_l/value	/jointset/ankle_l/ankle_angle_l/value	/jointset/subtalar_l/subtalar_angle_l/value	/jointset/ground_pelvis/pelvis_tilt/speed	/jointset/ground_pelvis/pelvis_tx/speed	/jointset/ground_pelvis/pelvis_ty/speed	/jointset/hip_l/hip_flexion_l/speed	/jointset/hip_l/hip_adduction_l/speed	/jointset/hip_l/hip_rotation_l/speed	/jointset/back/lumbar_extension/speed	/jointset/patellofemoral_l/patellar_flexion_l/speed	/jointset/knee_l/knee_flexion_l/speed	/jointset/knee_l/knee_adduction_l/speed	/jointset/knee_l/knee_rotation_l/speed	/jointset/ankle_l/ankle_angle_l/speed	/jointset/subtalar_l/subtalar_angle_l/speed	/forceset/tau_hip_flexion_l	/forceset/tau_hip_adduction_l	/forceset/tau_hip_rotation_l	/forceset/tau_knee_flexion_l	/forceset/tau_ankle_angle_l	/forceset/tau_subtalar_angle_l	/forceset/tau_lumbar_extension	lambda_cid13_p0	lambda_cid13_p1	lambda_cid13_p2	lambda_cid13_p3	lambda_cid13_p4	lambda_cid13_p5	lambda_cid14_p0	/jointset/ground_pelvis/pelvis_tilt/accel	/jointset/ground_pelvis/pelvis_tx/accel	/jointset/ground_pelvis/pelvis_ty/accel	/jointset/hip_l/hip_flexion_l/accel	/jointset/hip_l/hip_adduction_l/accel	/jointset/hip_l/hip_rotation_l/accel	/jointset/back/lumbar_extension/accel	/jointset/patellofemoral_l/patellar_flexion_l/accel	/jointset/knee_l/knee_flexion_l/accel	/jointset/knee_l/knee_adduction_l/accel	/jointset/knee_l/knee_rotation_l/accel	/jointset/ankle_l/ankle_angle_l/accel	/jointset/subtalar_l/subtalar_angle_l/accel	gamma_cid13_p0	gamma_cid13_p1	gamma_cid13_p2	gamma_cid13_p3	gamma_cid13_p4	gamma_cid13_p5	gamma_cid14_p0
0.5	-0.2297376927057301	0.05081507735912954	0.7812360048978877	0.9513364021261794	-0.3693184703472839	-0.006983350022950835	-0.3967240336823861	0.9218103452393702	0.9218103452394294	-0.05191517511436868	-0.1745007375169608	0.3248694876766257	0.1602534099250105	-0.7821558320135086	-0.1593999526471389	-0.4826500102002677	2.313749635126866	0.02770394535072806	0.5426841312189281	-0.3116776862281412	1.89552349330523	1.895523493305344	0.2629423172791833	0.0002628083749198258	0.5223072069335293	0.2557934904908839	-0.1085846649681117	0.03428792176612563	0.002506987255124677	-0.1750275751321518	-0.03574947946557758	0.01570870424781036	0.1179032317767788	-35.51960752774681	-0.9803475510151795	0.3062321766717024	4.300153884721608	-439.4042474031887	-63.82998963611337	-6.252495946550395	0.209033032986912	0.2380791684530199	-0.447444010952074	-0.9320669546093685	0.1468743595383919	-0.6670773175560012	1.262301651472762	-1.497215772846625	-1.49721577284661	-0.2036987815323714	0.0266946137336361	-0.9254370975320686	0.1075502481921678	-4.09303450373737e-07	-1.624936365779388e-06	5.020406843880409e-06	6.156795270414837e-08	-1.101289087127354e-06	-2.165075691431179e-06	-7.443673928211562e-07
0.51	-0.2375467673753077	0.04923342785624991	0.7763883268768775	0.9744222508623501	-0.3690367359455575	-0.001586129551722261	-0.3997785949919374	0.9406870894720976	0.9406870894721366	-0.04930405766430229	-0.1744979240286073	0.330044820003128	0.1628122636929753	-0.7795576474559109	-0.1568938786959647	-0.4867759213367259	2.303092705478107	0.02863411108255435	0.5367044239984864	-0.2992148092509687	1.879557272058615	1.879557272058709	0.2592714793136521	0.0002765647837886867	0.5127042933013618	0.2559296223647559	-0.1129472833483607	0.03472152740299679	0.001766331327782159	-0.1773703420913752	-0.03679828889387247	0.01668436571384355	0.1212260740388065	-35.93423684218187	-1.288543019349528	0.3063227474514176	4.066017521087531	-442.3928429662208	-64.39293604941618	-5.577395308558186	0.3003972599110655	0.2623049599110028	-0.3789359996478965	-1.181669737319652	0.06405318987040302	-0.5724533901890337	1.24124568547817	-1.686390094656385	-1.686390094659452	-0.4503273908245578	-0.01385266432967881	-0.9860239912460963	-0.0409203905552633	-3.968291110075144e-07	-1.10818949629025e-06	5.115813126852546e-06	1.320200721815376e-07	-1.084348659120099e-06	-1.788311934543758e-06	-7.192456105443998e-07
0.52	-0.2453268229807555	0.04767792578317435	0.7715026354775718	0.9973916975485713	-0.3687461067845395	0.003749486654121484	-0.4027079345387891	0.9593961585335418	0.9593961585335591	-0.04672995881124537	-0.1744954867399208	0.3351224620942711	0.1653709657701708	-0.7763520191877215	-0.1541704666863242	-0.4902526858594026	2.290469225136929	0.02948289720900731	0.5303632781420129	-0.2866333336882517	1.8619884590485	1.861988459048573	0.2555385978776787	0.0001875684409305306	0.5027691598617138	0.2557631523370291	-0.1173099017286143	0.03515513303986722	0.001025675400431239	-0.1797131090505997	-0.03784709832216771	0.01766002717987571	0.1245489163008305	-36.34253404718774	-1.609255947247393	0.3214430848982723	3.79224728951674	-445.3166801752579	-65.06533411083181	-4.947291364511186	0.3305217751052857	0.2815467801463082	-0.3176146881958051	-1.325377093092813	0.1305984384637194	-0.7393650447623918	1.286021368581626	-1.817734125546716	-1.817734125546689	-0.2161074756208176	0.006144063388220381	-0.9918810590281848	0.04702986787241823	-3.739108365173476e-07	-7.993984350061552e-07	4.97237815142883e-06	1.657359359835483e-07	-1.030154449287465e-06	-1.454205724285763e-06	-6.83544471119294e-07
0.53	-0.2530718400863123	0.04615059199691095	0.7665854542360573	1.020225451029862	-0.3684470781289459	0.009020361362466056	-0.4055108044512592	0.9779217885161889	0.977921788516064	-0.0441932672134325	-0.174493921343985	0.3400991424201884	0.1679268535056451	-0.7725485835972263	-0.1512750057196907	-0.4930699900264235	2.275970981348718	0.03032000846604519	0.5237637189752312	-0.2739209278713411	1.842878928720306	1.842878928720353	0.2517958935995027	0.0001151405419902396	0.4925042355610046	0.2553680402696762	-0.1220362991329458	0.03649220116318096	0.0003663830019902331	-0.1815935069949798	-0.0395915000773416	0.01788581720073942	0.1280725249336496	-37.06342235418304	-1.494117447003607	0.2037372699760712	3.893655871706908	-448.4316637802634	-64.81172227006924	-4.361739831597605	0.4206520875034714	0.2967751710257339	-0.2469527561491625	-1.558666355993181	0.05913494452179183	-0.6280676779693674	1.266808328379935	-1.996220842084923	-1.996220842088952	-0.4539699890056668	-0.01459076116304699	-1.053234256312033	-0.09021813871209865	-3.538128260445403e-07	-5.092746173922513e-07	4.87506362856884e-06	1.984776765130643e-07	-9.828472272888902e-07	-1.139612221531324e-06	-6.554531407468939e-07
